/* XPM */
const char * automaticLayout16[] = {
"16 16 57 1",
" 	c None",
".	c #000000",
"+	c #FEFEFE",
"@	c #FDFDFD",
"#	c #E0E0E0",
"$	c #C1C1C1",
"%	c #D1940C",
"&	c #F1F1F1",
"*	c #C3C3C3",
"=	c #FBFBFB",
"-	c #A8A8A8",
";	c #EED680",
">	c #ADADAD",
",	c #767676",
"'	c #5D5D5D",
")	c #404040",
"!	c #060606",
"~	c #323232",
"{	c #9A9A9A",
"]	c #F0F0F0",
"^	c #E2E2E2",
"/	c #858585",
"(	c #4B4B49",
"_	c #161616",
":	c #EFEFEF",
"<	c #BFBFBF",
"[	c #313131",
"}	c #EEEEEE",
"|	c #C5C5C5",
"1	c #191919",
"2	c #ECECEC",
"3	c #C4C4C4",
"4	c #DFDFDF",
"5	c #272727",
"6	c #EBEBEB",
"7	c #EDEDED",
"8	c #898989",
"9	c #0C0C0C",
"0	c #EAEAEA",
"a	c #555555",
"b	c #E8E8E8",
"c	c #595959",
"d	c #8C8C8C",
"e	c #C0C0C0",
"f	c #E9E9E9",
"g	c #314E6C",
"h	c #E6E6E6",
"i	c #E5E5E5",
"j	c #BEBEBE",
"k	c #7590AE",
"l	c #E4E4E4",
"m	c #BDBDBD",
"n	c #E3E3E3",
"o	c #BBBBBB",
"p	c #C2C2C2",
"q	c #BCBCBC",
"r	c #A0A0A0",
"  .........     ",
" .++++++@#$.    ",
"%%%%%&&&&*=-.   ",
"%;;;%&&&&>,').  ",
"%;;;%!~{]^/(_.  ",
"%;;;%:<[::}}|.  ",
"%;;;%:}1}}}23.  ",
"%%%%%45556}6*.  ",
" .@7228980a0$.  ",
" .@6bbbcbd.de.  ",
" .@00ffbb...<.  ",
"ggggggghhh.ij.  ",
"gkkkkkg...8lm.  ",
"gggggggllnnno.  ",
" .pmmmqqoooor.  ",
"  ...........   "};
