/* XPM */
char * databaseSource16[] = {
"16 16 68 1",
" 	c None",
".	c #222222",
"+	c #141414",
"@	c #000000",
"#	c #101010",
"$	c #1D1D1D",
"%	c #373737",
"&	c #7D7D7D",
"*	c #909090",
"=	c #AAAAAA",
"-	c #9B9B9B",
";	c #545454",
">	c #989898",
",	c #B4B4B4",
"'	c #939393",
")	c #8C8C8C",
"!	c #848484",
"~	c #727272",
"{	c #B7B7B7",
"]	c #888888",
"^	c #808080",
"/	c #797979",
"(	c #A3A3A3",
"_	c #6E6E6E",
":	c #999999",
"<	c #ADADAD",
"[	c #A8A8A8",
"}	c #AFAFAF",
"|	c #A6A6A6",
"1	c #858585",
"2	c #565656",
"3	c #A7A7A7",
"4	c #777777",
"5	c #8D8D8D",
"6	c #8A8A8A",
"7	c #616161",
"8	c #656565",
"9	c #1C1C1C",
"0	c #928DA5",
"a	c #8C87A1",
"b	c #CCC0B7",
"c	c #DFD7D2",
"d	c #DCD3CD",
"e	c #D5CBC4",
"f	c #A79282",
"g	c #525252",
"h	c #716B8D",
"i	c #625B81",
"j	c #C9BCB2",
"k	c #D4CAC3",
"l	c #CDC1B8",
"m	c #3F3F3F",
"n	c #696969",
"o	c #666666",
"p	c #535353",
"q	c #C2B4A9",
"r	c #BBABA0",
"s	c #8D7564",
"t	c #B9A89C",
"u	c #C5B8AE",
"v	c #B8A79B",
"w	c #CABEB5",
"x	c #987F6D",
"y	c #A38E7E",
"z	c #9F8776",
"A	c #BEAEA3",
"B	c #A89485",
"C	c #AC9889",
"   .+@#$        ",
"  %&*=-;$@      ",
" @>,')!&~@+@#$  ",
" @{>*]^/~@*=-;$@",
" @,()!)'_@')!&~@",
" @:<[}|12@*]^/~@",
" @3455678@)!)'_@",
"@@@@@@@@9@[}|12@",
"0a@bcddef@g5678@",
"hi@jkkkkkl@mnop@",
"hi@qkrstkku@]@@@",
"hi@vkwqxyty@@ju@",
"hi@zlkkkkkkkkA@ ",
"@@ @BqjjjjjjC@  ",
"    @@@@@@@@@   ",
"                "};
