/* XPM */
static char * dimOnline16[] = {
"16 16 118 2",
"  	c None",
". 	c #8A8C87",
"+ 	c #878A84",
"@ 	c #878984",
"# 	c #868883",
"$ 	c #858882",
"% 	c #858782",
"& 	c #848681",
"* 	c #838680",
"= 	c #838580",
"- 	c #82847F",
"; 	c #81847E",
"> 	c #80837D",
", 	c #80827D",
"' 	c #82847E",
") 	c #F7F7F6",
"! 	c #FCFCFC",
"~ 	c #FCFCFB",
"{ 	c #FBFBFB",
"] 	c #FBFBFA",
"^ 	c #F2F2F1",
"/ 	c #7B7E78",
"( 	c #7F817C",
"_ 	c #397503",
": 	c #DFE0DC",
"< 	c #F9F9F9",
"[ 	c #747772",
"} 	c #7A7C77",
"| 	c #94B924",
"1 	c #4E9A06",
"2 	c #7AB344",
"3 	c #DCDDD9",
"4 	c #F8F8F7",
"5 	c #6F726D",
"6 	c #757772",
"7 	c #5FA41D",
"8 	c #FFFFFF",
"9 	c #59A016",
"0 	c #D9DBD7",
"a 	c #6B6D68",
"b 	c #70726D",
"c 	c #CFD85D",
"d 	c #FDF5AF",
"e 	c #BDCF4C",
"f 	c #D7D8D4",
"g 	c #F5F6F5",
"h 	c #656863",
"i 	c #6B6D69",
"j 	c #5FA20C",
"k 	c #F0E449",
"l 	c #D2D53D",
"m 	c #D4D6D1",
"n 	c #F4F4F3",
"o 	c #60625E",
"p 	c #666864",
"q 	c #FCE94F",
"r 	c #CED43C",
"s 	c #519C08",
"t 	c #F3E54B",
"u 	c #65A40F",
"v 	c #D1D53D",
"w 	c #D1D3CE",
"x 	c #F2F3F1",
"y 	c #5C5E59",
"z 	c #61635E",
"A 	c #F8F9F8",
"B 	c #B3CD5B",
"C 	c #C5D66A",
"D 	c #ECE98C",
"E 	c #599F10",
"F 	c #CFD1CC",
"G 	c #F1F1F0",
"H 	c #565854",
"I 	c #5C5E5A",
"J 	c #ABC744",
"K 	c #FEFEFE",
"L 	c #BDD15D",
"M 	c #CCCEC9",
"N 	c #EFF0EE",
"O 	c #555753",
"P 	c #575955",
"Q 	c #F6F6F5",
"R 	c #BDD9A2",
"S 	c #4F9A07",
"T 	c #CACCC6",
"U 	c #EDEEEC",
"V 	c #509B09",
"W 	c #C7C9C3",
"X 	c #EBECEA",
"Y 	c #F3F3F2",
"Z 	c #C4C6C0",
"` 	c #E9EAE8",
" .	c #B8B9B5",
"..	c #D6D7D3",
"+.	c #B4B5B2",
"@.	c #D2D3CF",
"#.	c #B1B3AE",
"$.	c #CED0CB",
"%.	c #AEAFAA",
"&.	c #C8CAC4",
"*.	c #C5C8C2",
"=.	c #C3C6C0",
"-.	c #C1C4BE",
";.	c #E7E8E6",
">.	c #585A56",
",.	c #E5E6E4",
"'.	c #E2E2E1",
").	c #EEEEEC",
"!.	c #E1E1DF",
"~.	c #ECEDEB",
"{.	c #DFE0DE",
"].	c #EAEBE9",
"^.	c #DEDFDD",
"/.	c #E9EAE7",
"(.	c #E8E9E6",
"_.	c #E6E7E5",
":.	c #E6E6E4",
"<.	c #D8DAD7",
"  . + @ # $ % & * = - ; > , '   ",
"@ ) ! ! ! ! ! ! ! ~ { { ] ] ^ / ",
"( ! _ _ _ _ _ _ _ _ _ _ _ : < [ ",
"} ~ _ | 1 | 2 | 1 | 1 | _ 3 4 5 ",
"6 { _ 1 1 7 8 9 1 1 1 1 _ 0 ) a ",
"b ] _ | 1 c d e 1 | 1 | _ f g h ",
"i ] _ 1 j k | l 1 1 1 1 _ m n o ",
"p < _ q q r s t u v q q _ w x y ",
"z A _ 1 1 1 1 B C D E 1 _ F G H ",
"I ) _ | 1 | 1 J K L 1 | _ M N O ",
"P Q _ 1 1 1 1 1 R S 1 1 _ T U O ",
"O n _ | 1 | 1 | V | 1 | _ W X O ",
"O Y _ _ _ _ _ _ _ _ _ _ _ Z ` O ",
"O G  ...+.@.#.$.%.T &.*.=.-.;.O ",
">.,.'.).!.~.{.].^./.(.;._.:.<.P ",
"  >.O O O O O O O O O O O O P   "};
