/* XPM */
static char * editProperties16[] = {
"16 16 79 1",
" 	c None",
".	c #888A85",
"+	c #FEFEFE",
"@	c #FBFBFB",
"#	c #F6F6F6",
"$	c #ECECEC",
"%	c #EBEBEB",
"&	c #EBEAEB",
"*	c #EAEAEA",
"=	c #E9EAE9",
"-	c #C7C6C6",
";	c #AEB0AB",
">	c #E4E5E4",
",	c #E9EAEA",
"'	c #E8E9E9",
")	c #E8E8E8",
"!	c #E8E8E7",
"~	c #9D9F9A",
"{	c #EFEFEF",
"]	c #EAE9EA",
"^	c #E9E9E8",
"/	c #E8E7E7",
"(	c #E7E6E6",
"_	c #E6E6E6",
":	c #A9AAA8",
"<	c #939590",
"[	c #E7E7E8",
"}	c #E7E7E7",
"|	c #B3B3B2",
"1	c #7F7F7F",
"2	c #AFB0AF",
"3	c #ABACAB",
"4	c #C2C3C1",
"5	c #D0D0D0",
"6	c #E6E6E7",
"7	c #E6E5E5",
"8	c #EAE9E8",
"9	c #F9F9F8",
"0	c #D8D8D7",
"a	c #DFDFDF",
"b	c #E5E5E5",
"c	c #DADADA",
"d	c #F8F7F6",
"e	c #F3F2F1",
"f	c #878984",
"g	c #E4E3E3",
"h	c #E3E3E3",
"i	c #D9D9D9",
"j	c #ECEAE8",
"k	c #868883",
"l	c #FDFDFD",
"m	c #AEAEAE",
"n	c #AFAFAF",
"o	c #BBBBBB",
"p	c #EDEBEA",
"q	c #F8F8F8",
"r	c #E8E7E4",
"s	c #E9E9E9",
"t	c #ADADAD",
"u	c #E3E3E2",
"v	c #FAFAF9",
"w	c #8F8F8B",
"x	c #A5A5A5",
"y	c #E8E7E6",
"z	c #F2F1EF",
"A	c #EDEBE9",
"B	c #EBE9E7",
"C	c #878884",
"D	c #8C8C8C",
"E	c #CFCDCA",
"F	c #F8F8F7",
"G	c #F9F9F7",
"H	c #F9F8F7",
"I	c #ABABAB",
"J	c #B5B5B5",
"K	c #F6F6F5",
"L	c #F1F1F1",
"M	c #D3D3D3",
"N	c #868783",
"  .........     ",
" .+++++@@#@.    ",
" .+$%&*=-;>@.   ",
" .+%*,')!~{>>.  ",
" .+]^)/(_:~<..  ",
" .+)[}|112345.  ",
" .+}67189012a.  ",
" .+_b>c1de01+f  ",
" .+g5hhi1j91+k  ",
" .lm1nhhop91+.  ",
" .q1rs1tujvw_.  ",
" .+xyzAjBBB91C  ",
" .+iDEF9G9BBH1  ",
" .+h5I111J9jBK1 ",
" .++++++LM19BB+1",
" .........N1+BB+"};
