/* XPM */
static char * folderOpen16[] = {
"16 16 65 1",
" 	c None",
".	c #6A6C68",
"+	c #555753",
"@	c #696B67",
"#	c #C1C3B2",
"$	c #C3C5B5",
"%	c #B9BAAC",
"&	c #BBBDAA",
"*	c #9A9D88",
"=	c #9A9C87",
"-	c #999B86",
";	c #AFB09F",
">	c #666863",
",	c #B3B5A3",
"'	c #8F927E",
")	c #8F917E",
"!	c #929481",
"~	c #A9AA9A",
"{	c #A2A493",
"]	c #A3A495",
"^	c #A3A596",
"/	c #9D9F91",
"(	c #B0B2A0",
"_	c #8A8D78",
":	c #8C8F7B",
"<	c #888B77",
"[	c #989A8C",
"}	c #AEB09E",
"|	c #868975",
"1	c #838672",
"2	c #818470",
"3	c #909283",
"4	c #A9AD99",
"5	c #7A7C6A",
"6	c #585A53",
"7	c #4E504C",
"8	c #4B4D49",
"9	c #60625E",
"0	c #61635F",
"a	c #4C4E4A",
"b	c #9B9C90",
"c	c #C2C3B6",
"d	c #D1D2C3",
"e	c #CFD0C1",
"f	c #CACCBE",
"g	c #C9CBBD",
"h	c #C8C9BB",
"i	c #7A7C74",
"j	c #CFD0C2",
"k	c #C3C4B3",
"l	c #AFB098",
"m	c #AFB099",
"n	c #C9CABB",
"o	c #B0B19A",
"p	c #C9CABC",
"q	c #D2D3C6",
"r	c #B1B29B",
"s	c #C4C5B6",
"t	c #C7C8BA",
"u	c #B2B39C",
"v	c #C5C6B6",
"w	c #C0C1B0",
"x	c #C2C3B1",
"y	c #C1C2B0",
"z	c #B9BBA9",
".+++++@         ",
"+#$$$%+         ",
"+&*=-;++++++++> ",
"+,'')!~{]^^^^/+ ",
"+,'''''''''''/+ ",
"+(_::__<_____[+ ",
"+}__|122222223+ ",
"+4555567888879+ ",
"+0aaaabcdefghi+ ",
"+jjjjjjkllllmn+ ",
"+jmmmmmmmoooop+ ",
"+qrrrrrrrrrrrs+ ",
"+turrruuuuuuuv+ ",
"+wxyyyyywwyyyz+ ",
">+++++++++++++> ",
"                "};
