/* XPM */
const char * mb_asterisk_s[] = {
"16 16 19 1",
" 	c None",
".	c #FFFFFF",
"+	c #C0C0C0",
"@	c #B0B0B0",
"#	c #DFDFDF",
"$	c #EFEFEF",
"%	c #3030EF",
"&	c #0000FF",
"*	c #BFBFBF",
"=	c #D0D0D0",
"-	c #505050",
";	c #BFBFFF",
">	c #4040FF",
",	c #808080",
"'	c #A0A0A0",
")	c #8080FF",
"!	c #707070",
"~	c #404040",
"{	c #606060",
"....+@+++@+.....",
"..#@$.....$@#...",
".##...%&%...**..",
"#=....%&%....@*.",
"@.............-#",
"+....;>&&.....,'",
"+.....)&&.....,,",
"@.....)&&.....!,",
"+$....)&&....$~,",
".'...;))))...{,+",
"..,$.......${,'.",
"...{!@...@!~,'..",
"....+{~@.~,,+...",
"......#,.~+.....",
"........,~+.....",
".........'+....."};
