/* XPM */
const char * mb_exclamation_s[] = {
"16 16 20 1",
" 	c None",
".	c #FFFFFF",
"+	c #C0C000",
"@	c #B0B030",
"#	c #BFBF00",
"$	c #FFFF00",
"%	c #707030",
"&	c #A0A060",
"*	c #EFEF30",
"=	c #404040",
"-	c #C0C040",
";	c #808080",
">	c #808000",
",	c #000000",
"'	c #202000",
")	c #A0A000",
"!	c #D0D030",
"~	c #505030",
"{	c #DFDF00",
"]	c #505050",
"......+@#.......",
".....+$$%&......",
".....+$$*=-.....",
"....+$$$$%;.....",
"....+$@>**=-....",
"...+$$,,>$%;....",
"...+$$,,>$*=-...",
"..+$$$',)$$%;...",
"..+$$$%,*$$*=-..",
".+$$$$!~$$$$%;..",
".+$$$$$#$$$$*=-.",
"+$$$$$@,@$$$$%;.",
"+$$$$$@,@$$$$*=-",
"+$$$$$$$$$$$$*=;",
"{)>>>>>>>>>>>];;",
"..&;;;;;;;;;;;;."};
