/* XPM */
const char * mb_stop_s[] = {
"16 16 18 1",
" 	c None",
".	c #FFFFFF",
"+	c #C08080",
"@	c #C04040",
"#	c #C00000",
"$	c #DFBFBF",
"%	c #FF0000",
"&	c #DF0000",
"*	c #FF4040",
"=	c #A02020",
"-	c #DFDFDF",
";	c #FFBFBF",
">	c #A06060",
",	c #C0C0C0",
"'	c #A0A0A0",
")	c #808080",
"!	c #804040",
"~	c #806060",
"....+@###@+.....",
"..$@%%%%%%%@$...",
".$&%%%%%%%%%&$..",
".@%%*%%%%%*%%=-.",
"+%%*.;%%%;.*%%>.",
"@%%%;.;%;.;%%%=,",
"#%%%%;...;%%%%#'",
"#%%%%%...%%%%%#)",
"#%%%%;...;%%%%#)",
"@%%%;.;%;.;%%%=)",
"+%%*.;%%%;.*%%!'",
".@%%*%%%%%*%%=),",
".$&%%%%%%%%%&~'.",
"..$=%%%%%%%=~)-.",
"...->=###=!)'-..",
".....,')))',...."};
