/* XPM */
char * newPage16[] = {
"16 16 90 1",
" 	c None",
".	c #888A85",
"+	c #888A83",
"@	c #93917B",
"#	c #A9A469",
"$	c #C5B94D",
"%	c #D3C33B",
"&	c #E8D425",
"*	c #F3DD23",
"=	c #FEFEFE",
"-	c #FCFAEC",
";	c #F8F1AF",
">	c #F5E457",
",	c #F0DA20",
"'	c #EDD401",
")	c #EED711",
"!	c #F3DD22",
"~	c #ECECEC",
"{	c #EBEBEB",
"]	c #EBE8E5",
"^	c #EDE7BE",
"/	c #EDD509",
"(	c #EDD402",
"_	c #EDD400",
":	c #FDFBED",
"<	c #EDD504",
"[	c #EAE9E9",
"}	c #EAE8DC",
"|	c #EEE69B",
"1	c #EDD405",
"2	c #FCFAE7",
"3	c #FDFAE6",
"4	c #FCFAE6",
"5	c #FAE646",
"6	c #EAE9EA",
"7	c #E9E9E7",
"8	c #EAE7D4",
"9	c #F0E48A",
"0	c #EDD404",
"a	c #FAE747",
"b	c #E8E8E8",
"c	c #E7E7E7",
"d	c #E9E6D6",
"e	c #EFE58F",
"f	c #F4E13F",
"g	c #FDFBE7",
"h	c #FCF9E6",
"i	c #F7E236",
"j	c #FBE84B",
"k	c #E6E6E6",
"l	c #E7E4DB",
"m	c #ECE5AC",
"n	c #F4E35B",
"o	c #FEFEFC",
"p	c #FAE645",
"q	c #FBE84D",
"r	c #E5E5E5",
"s	c #E4E5E1",
"t	c #E7E3C9",
"u	c #EEE58F",
"v	c #EDD507",
"w	c #FDFBEA",
"x	c #FDFBEB",
"y	c #FBE84C",
"z	c #FCE94F",
"A	c #E5E4E4",
"B	c #E4E4E4",
"C	c #E3E3E3",
"D	c #E3E3DE",
"E	c #E8E3C3",
"F	c #EEE496",
"G	c #EDD50A",
"H	c #F6E561",
"I	c #F6E560",
"J	c #EED60A",
"K	c #D1C560",
"L	c #E6E2CD",
"M	c #E9E3BC",
"N	c #ECE4AA",
"O	c #ECE4A9",
"P	c #FDF6C2",
"Q	c #A09D79",
"R	c #E3E3E1",
"S	c #E3E3DD",
"T	c #E4E3DA",
"U	c #E4E3D9",
"V	c #FDFCF4",
"W	c #8A8B83",
"X	c #E3E3E2",
"Y	c #FDFDFD",
"  ....+@#$%&*   ",
" .====-;>,'')!  ",
" .=~{]^/(_::_'< ",
" .={[}|1233334<5",
" .=67890433334<a",
" .=bcdef(g33h'ij",
" .=cklmn0o442<pq",
" .=krstuvw00xvyz",
" .=ABCDEFGHIJK  ",
" .=CCCCDLMNOPQ  ",
" .=CCCCCRSTUVW  ",
" .=CCCCCCCXXY.  ",
" .=CCCCCCCCC=.  ",
" .=CCCCCCCCC=.  ",
" .===========.  ",
" .............  "};
