/* XPM */
const char * presenter32[] = {
"32 32 877 2",
"  	c None",
". 	c #376A70",
"+ 	c #346D6A",
"@ 	c #3B677C",
"# 	c #3F7A7A",
"$ 	c #346979",
"% 	c #37657E",
"& 	c #365F7E",
"* 	c #417880",
"= 	c #34677D",
"- 	c #3D7680",
"; 	c #325087",
"> 	c #355B84",
", 	c #417081",
"' 	c #395785",
") 	c #3D6580",
"! 	c #375189",
"~ 	c #3A558B",
"{ 	c #427877",
"] 	c #3A5D81",
"^ 	c #3D6680",
"/ 	c #37487F",
"( 	c #3B576A",
"_ 	c #417173",
": 	c #417089",
"< 	c #2B344C",
"[ 	c #303150",
"} 	c #3E6D50",
"| 	c #365760",
"1 	c #395C5D",
"2 	c #3A4874",
"3 	c #3C4872",
"4 	c #384747",
"5 	c #3F7673",
"6 	c #385A7E",
"7 	c #385F7F",
"8 	c #376D7A",
"9 	c #407383",
"0 	c #3D7081",
"a 	c #335E7F",
"b 	c #346779",
"c 	c #3F7C81",
"d 	c #376088",
"e 	c #325E85",
"f 	c #36637B",
"g 	c #4F507B",
"h 	c #6C755A",
"i 	c #564A4A",
"j 	c #554238",
"k 	c #4F4034",
"l 	c #4C3C3B",
"m 	c #5A5C3D",
"n 	c #5B565F",
"o 	c #4D607E",
"p 	c #3C5F80",
"q 	c #41707B",
"r 	c #315356",
"s 	c #3B5B79",
"t 	c #406391",
"u 	c #314248",
"v 	c #3E724D",
"w 	c #2D3450",
"x 	c #437196",
"y 	c #415F8A",
"z 	c #394D55",
"A 	c #385678",
"B 	c #3C8673",
"C 	c #346874",
"D 	c #336B78",
"E 	c #3A6B7F",
"F 	c #3D6D81",
"G 	c #35627E",
"H 	c #33687A",
"I 	c #355D8A",
"J 	c #417582",
"K 	c #546471",
"L 	c #5D4438",
"M 	c #633C19",
"N 	c #532E0E",
"O 	c #4A2B0E",
"P 	c #46270C",
"Q 	c #42240C",
"R 	c #3B200E",
"S 	c #3A220E",
"T 	c #301F0D",
"U 	c #2A1B13",
"V 	c #3C3A4E",
"W 	c #51627A",
"X 	c #447469",
"Y 	c #334A61",
"Z 	c #3D5880",
"` 	c #354A53",
" .	c #3E6751",
"..	c #303A4E",
"+.	c #3E5487",
"@.	c #35485A",
"#.	c #394559",
"$.	c #395F7A",
"%.	c #37517F",
"&.	c #3C7380",
"*.	c #396B7C",
"=.	c #386383",
"-.	c #366381",
";.	c #3E7082",
">.	c #38628B",
",.	c #346488",
"'.	c #535464",
").	c #794A17",
"!.	c #5F3810",
"~.	c #653610",
"{.	c #71330F",
"].	c #7B3312",
"^.	c #743010",
"/.	c #58270E",
"(.	c #3E200E",
"_.	c #281508",
":.	c #39220D",
"<.	c #43270E",
"[.	c #40260F",
"}.	c #2B1B18",
"|.	c #5C4F45",
"1.	c #53696E",
"2.	c #334159",
"3.	c #2A333B",
"4.	c #303955",
"5.	c #3E654A",
"6.	c #2B3643",
"7.	c #324050",
"8.	c #446078",
"9.	c #3C647B",
"0.	c #346C70",
"a.	c #354F81",
"b.	c #3E7680",
"c.	c #355985",
"d.	c #35657D",
"e.	c #335983",
"f.	c #3C7385",
"g.	c #434B5A",
"h.	c #3D2611",
"i.	c #613310",
"j.	c #AE3C0F",
"k.	c #C02D09",
"l.	c #C32A09",
"m.	c #C32C0B",
"n.	c #C42C0B",
"o.	c #C02A06",
"p.	c #B72908",
"q.	c #9D2F0E",
"r.	c #6E2F0F",
"s.	c #3E220E",
"t.	c #1B0E05",
"u.	c #3B230D",
"v.	c #3E2610",
"w.	c #49321C",
"x.	c #604E4E",
"y.	c #405B81",
"z.	c #436B93",
"A.	c #354A4F",
"B.	c #3E6B5F",
"C.	c #3F6374",
"D.	c #416B6D",
"E.	c #3A587A",
"F.	c #346173",
"G.	c #3A6B79",
"H.	c #315459",
"I.	c #3B6386",
"J.	c #334886",
"K.	c #355E81",
"L.	c #2F4062",
"M.	c #281C12",
"N.	c #7E4114",
"O.	c #BC2E0A",
"P.	c #C52A0A",
"Q.	c #C72A09",
"R.	c #C92B07",
"S.	c #C82C06",
"T.	c #C72B05",
"U.	c #C52A06",
"V.	c #C22A07",
"W.	c #BF2B09",
"X.	c #BD2908",
"Y.	c #B12C0B",
"Z.	c #81330F",
"`.	c #381E0B",
" +	c #251307",
".+	c #492C12",
"++	c #2B190E",
"@+	c #624B4D",
"#+	c #374165",
"$+	c #324C47",
"%+	c #30453E",
"&+	c #354F54",
"*+	c #3E594D",
"=+	c #417577",
"-+	c #3D667E",
";+	c #346357",
">+	c #232416",
",+	c #36517D",
"'+	c #3B7086",
")+	c #324D78",
"!+	c #3E2A1B",
"~+	c #713C11",
"{+	c #BB2D0A",
"]+	c #C42809",
"^+	c #C6290A",
"/+	c #C62909",
"(+	c #C82B08",
"_+	c #C92D07",
":+	c #C92E08",
"<+	c #C72D09",
"[+	c #C42C0A",
"}+	c #C12B0A",
"|+	c #BE2908",
"1+	c #C12A07",
"2+	c #BF2907",
"3+	c #AA320B",
"4+	c #582A0E",
"5+	c #211107",
"6+	c #472B10",
"7+	c #241309",
"8+	c #5B4B44",
"9+	c #304351",
"0+	c #3E6379",
"a+	c #395650",
"b+	c #4F653B",
"c+	c #395C7C",
"d+	c #438C74",
"e+	c #304731",
"f+	c #2F2412",
"g+	c #304867",
"h+	c #355F7F",
"i+	c #313D49",
"j+	c #5E3713",
"k+	c #B8390B",
"l+	c #C02307",
"m+	c #C22406",
"n+	c #C32506",
"o+	c #C62808",
"p+	c #C72A07",
"q+	c #C82B09",
"r+	c #C62C09",
"s+	c #C4290A",
"t+	c #C42907",
"u+	c #C12A08",
"v+	c #BF2809",
"w+	c #C02806",
"x+	c #BD2806",
"y+	c #BC2A03",
"z+	c #B32D09",
"A+	c #6E3110",
"B+	c #281507",
"C+	c #3B230F",
"D+	c #251918",
"E+	c #4F5773",
"F+	c #416A7F",
"G+	c #2E363E",
"H+	c #58723E",
"I+	c #39607A",
"J+	c #344E7E",
"K+	c #3A452A",
"L+	c #332312",
"M+	c #325B5B",
"N+	c #324B79",
"O+	c #3C2417",
"P+	c #8F460D",
"Q+	c #BD2305",
"R+	c #C02305",
"S+	c #C62805",
"T+	c #C82A07",
"U+	c #C22C0E",
"V+	c #C23D22",
"W+	c #C64C32",
"X+	c #C1391C",
"Y+	c #C02C0D",
"Z+	c #C22C0B",
"`+	c #C22B08",
" @	c #C02909",
".@	c #BF2805",
"+@	c #BD2803",
"@@	c #BC2907",
"#@	c #BC2908",
"$@	c #B82C0B",
"%@	c #632B0D",
"&@	c #2E1908",
"*@	c #28160A",
"=@	c #34262E",
"-@	c #393848",
";@	c #33543C",
">@	c #3F5C45",
",@	c #3E6C79",
"'@	c #346478",
")@	c #3D522D",
"!@	c #3C260E",
"~@	c #376667",
"{@	c #26364E",
"]@	c #502F10",
"^@	c #B13F10",
"/@	c #BF2708",
"(@	c #C1290A",
"_@	c #C53119",
":@	c #D5877D",
"<@	c #EDD7D9",
"[@	c #F9F0F7",
"}@	c #F9F2F9",
"|@	c #FAF0F6",
"1@	c #F1DADB",
"2@	c #DFA9A2",
"3@	c #C85D4A",
"4@	c #C03319",
"5@	c #C12D0B",
"6@	c #C02C07",
"7@	c #BF2D09",
"8@	c #BD2D0A",
"9@	c #BF2E08",
"0@	c #B5310D",
"a@	c #411F0A",
"b@	c #341E0B",
"c@	c #190D07",
"d@	c #554F3C",
"e@	c #3A5269",
"f@	c #3E595D",
"g@	c #3B5B7D",
"h@	c #345C7A",
"i@	c #386444",
"j@	c #4A3116",
"k@	c #37577C",
"l@	c #2B322B",
"m@	c #854E16",
"n@	c #B52D0B",
"o@	c #C1290D",
"p@	c #C2341E",
"q@	c #E0B1B0",
"r@	c #F9F1F9",
"s@	c #FBF4FC",
"t@	c #FCF5FD",
"u@	c #FCF5FC",
"v@	c #FAF3FC",
"w@	c #F9F1F6",
"x@	c #E6BCB6",
"y@	c #CA5641",
"z@	c #C33516",
"A@	c #C03211",
"B@	c #BF2F0D",
"C@	c #C03007",
"D@	c #BE300B",
"E@	c #9E330F",
"F@	c #291606",
"G@	c #32200E",
"H@	c #342113",
"I@	c #526C7F",
"J@	c #405B65",
"K@	c #3E6C7A",
"L@	c #385681",
"M@	c #354E69",
"N@	c #4F3721",
"O@	c #334776",
"P@	c #3E2910",
"Q@	c #9B5113",
"R@	c #BA2B0E",
"S@	c #C2331B",
"T@	c #E2AEAD",
"U@	c #F6EFF6",
"V@	c #FAF3FB",
"W@	c #FAF3FA",
"X@	c #F9F3FA",
"Y@	c #F8ECEF",
"Z@	c #DC9587",
"`@	c #C44028",
" #	c #C13516",
".#	c #C2330E",
"+#	c #C03210",
"@#	c #BC320E",
"##	c #66290D",
"$#	c #3A230D",
"%#	c #1B1205",
"&#	c #50414F",
"*#	c #3D5351",
"=#	c #396B73",
"-#	c #3D6F81",
";#	c #366664",
">#	c #3E2C1D",
",#	c #2C325D",
"'#	c #54320F",
")#	c #A84814",
"!#	c #BE2F17",
"~#	c #D88C84",
"{#	c #F7F0F6",
"]#	c #F7F1F7",
"^#	c #F9F2FA",
"/#	c #FAF4FB",
"(#	c #FAF3F9",
"_#	c #ECCBC6",
":#	c #CA5B45",
"<#	c #C83B1E",
"[#	c #C23613",
"}#	c #BD3211",
"|#	c #AE3910",
"1#	c #3E260C",
"2#	c #25190B",
"3#	c #3D3329",
"4#	c #3D4846",
"5#	c #357567",
"6#	c #385E7A",
"7#	c #2F514D",
"8#	c #1D130B",
"9#	c #1F1C2E",
"0#	c #58370D",
"a#	c #AD4115",
"b#	c #C65B4C",
"c#	c #F5EBF1",
"d#	c #F8F1F9",
"e#	c #F9F3F9",
"f#	c #F5E9EA",
"g#	c #DF998A",
"h#	c #CC4B31",
"i#	c #C1391B",
"j#	c #BC3514",
"k#	c #5E2C0D",
"l#	c #3C2911",
"m#	c #2C2213",
"n#	c #6A5437",
"o#	c #385A69",
"p#	c #2F573C",
"q#	c #644930",
"r#	c #623D0E",
"s#	c #3C2717",
"t#	c #663F11",
"u#	c #A4381D",
"v#	c #E4BFC2",
"w#	c #FBF4FB",
"x#	c #F8F3F9",
"y#	c #EFDCD7",
"z#	c #D98672",
"A#	c #CD4B2A",
"B#	c #8E3618",
"C#	c #473111",
"D#	c #281E0D",
"E#	c #44392A",
"F#	c #315C3E",
"G#	c #1E2312",
"H#	c #3C3313",
"I#	c #442A0C",
"J#	c #432B11",
"K#	c #492E10",
"L#	c #8B5744",
"M#	c #F6EFF3",
"N#	c #F8F1F8",
"O#	c #F7F0F8",
"P#	c #FDF6FD",
"Q#	c #FBF6FC",
"R#	c #F8F4F7",
"S#	c #F7F1F6",
"T#	c #E9C7BE",
"U#	c #B65942",
"V#	c #53341A",
"W#	c #281F13",
"X#	c #6C4A22",
"Y#	c #336844",
"Z#	c #2C522F",
"`#	c #252710",
" $	c #201607",
".$	c #4E3111",
"+$	c #3E2C13",
"@$	c #A39693",
"#$	c #F7F0F7",
"$$	c #FAF5FB",
"%$	c #F6F1F6",
"&$	c #D0BEB9",
"*$	c #5F4028",
"=$	c #2A2417",
"-$	c #584023",
";$	c #395574",
">$	c #3E556C",
",$	c #936015",
"'$	c #955D12",
")$	c #674113",
"!$	c #483617",
"~$	c #B6AFB3",
"{$	c #F7EFF6",
"]$	c #FCF4FC",
"^$	c #FBF4FA",
"/$	c #F8F3F7",
"($	c #F7F2F4",
"_$	c #EFE9E8",
":$	c #765735",
"<$	c #2C271C",
"[$	c #624F28",
"}$	c #375876",
"|$	c #376169",
"1$	c #4D3913",
"2$	c #482C0F",
"3$	c #533511",
"4$	c #5F3E13",
"5$	c #A8A2A3",
"6$	c #F2EDF4",
"7$	c #E3DEE4",
"8$	c #FAF1F9",
"9$	c #F6EEF5",
"0$	c #F2EBF2",
"a$	c #F4EDF4",
"b$	c #FAF3F8",
"c$	c #FAF4F7",
"d$	c #FBF5F8",
"e$	c #F9F4F6",
"f$	c #F7F3F4",
"g$	c #F7F2F3",
"h$	c #E8E5E4",
"i$	c #745530",
"j$	c #2E291B",
"k$	c #625329",
"l$	c #385377",
"m$	c #386569",
"n$	c #433916",
"o$	c #452A10",
"p$	c #4D3111",
"q$	c #674416",
"r$	c #948985",
"s$	c #F5EEF5",
"t$	c #F6EEF4",
"u$	c #E7E5E6",
"v$	c #737673",
"w$	c #E9E3E8",
"x$	c #F1EBF2",
"y$	c #F3ECF3",
"z$	c #FBF4F9",
"A$	c #FAF4F6",
"B$	c #FAF4F8",
"C$	c #E0D6EA",
"D$	c #F7F2F5",
"E$	c #F8F3F4",
"F$	c #CDC8C7",
"G$	c #745221",
"H$	c #372A19",
"I$	c #5E5433",
"J$	c #3F6475",
"K$	c #3A556F",
"L$	c #403214",
"M$	c #3B260E",
"N$	c #533510",
"O$	c #553A10",
"P$	c #7C6D5E",
"Q$	c #F4EDF2",
"R$	c #F5EEF4",
"S$	c #EAE7EA",
"T$	c #7F9381",
"U$	c #7E7E7C",
"V$	c #C5B8E0",
"W$	c #C3B3DD",
"X$	c #BBACD8",
"Y$	c #C2B5DB",
"Z$	c #B9ACD7",
"`$	c #C5B9DD",
" %	c #F8F4F5",
".%	c #F6F2F4",
"+%	c #8C8271",
"@%	c #64471C",
"#%	c #4B361A",
"$%	c #48533D",
"%%	c #3A497C",
"&%	c #396A5B",
"*%	c #3F2C0F",
"=%	c #34220D",
"-%	c #57360F",
";%	c #35230B",
">%	c #6E5432",
",%	c #F2EAED",
"'%	c #F4EEF4",
")%	c #F0EBF2",
"!%	c #AFCBB8",
"~%	c #697B69",
"{%	c #8D918E",
"]%	c #D9D0E9",
"^%	c #D7CBE4",
"/%	c #DDD4E7",
"(%	c #D6CBE4",
"_%	c #E0D8EA",
":%	c #EAE4EE",
"<%	c #F3EFF0",
"[%	c #BCBAB5",
"}%	c #7D5822",
"|%	c #372B12",
"1%	c #604729",
"2%	c #425B4E",
"3%	c #3E5D79",
"4%	c #345161",
"5%	c #432B0E",
"6%	c #3A230E",
"7%	c #563511",
"8%	c #231607",
"9%	c #6F4C17",
"0%	c #CDC8C8",
"a%	c #C5D4C6",
"b%	c #A1C6A9",
"c%	c #4C5D4C",
"d%	c #757F76",
"e%	c #EDE7EB",
"f%	c #F8F1F7",
"g%	c #F6F0F2",
"h%	c #E8E3E4",
"i%	c #ADB1A4",
"j%	c #58482E",
"k%	c #714C13",
"l%	c #463113",
"m%	c #4E4E65",
"n%	c #415E51",
"o%	c #3D6174",
"p%	c #354E60",
"q%	c #3D260E",
"r%	c #341C0B",
"s%	c #3D240E",
"t%	c #291708",
"u%	c #68410F",
"v%	c #7D7A75",
"w%	c #C0CDC0",
"x%	c #7EAD84",
"y%	c #87B491",
"z%	c #3B4733",
"A%	c #8BA38F",
"B%	c #8F8B8A",
"C%	c #F1EBF0",
"D%	c #F6EFF7",
"E%	c #F4EFF0",
"F%	c #E2DFDD",
"G%	c #AEBAA8",
"H%	c #758969",
"I%	c #3A3119",
"J%	c #754A11",
"K%	c #36240B",
"L%	c #5A4946",
"M%	c #45538D",
"N%	c #416448",
"O%	c #3B5D72",
"P%	c #335A5B",
"Q%	c #3D260C",
"R%	c #3A230B",
"S%	c #1B0E07",
"T%	c #3C240D",
"U%	c #59370D",
"V%	c #493E2A",
"W%	c #9AB09C",
"X%	c #639F68",
"Y%	c #5A9B61",
"Z%	c #29311C",
"`%	c #648867",
" &	c #929C91",
".&	c #807D7A",
"+&	c #C2BCBE",
"@&	c #EBE3E8",
"#&	c #F2EAF0",
"$&	c #EFE9EE",
"%&	c #E3DDE0",
"&&	c #CBC3C6",
"*&	c #AEABA7",
"=&	c #83977A",
"-&	c #536E44",
";&	c #333E1E",
">&	c #35230C",
",&	c #673D11",
"'&	c #533315",
")&	c #5A4647",
"!&	c #424F88",
"~&	c #43518C",
"{&	c #40624C",
"]&	c #3E6572",
"^&	c #324F5F",
"/&	c #37230C",
"(&	c #2F1B09",
"_&	c #160F11",
":&	c #4C2B0F",
"<&	c #2C1A09",
"[&	c #654111",
"}&	c #A5A59B",
"|&	c #608B62",
"1&	c #4E8E54",
"2&	c #364F2D",
"3&	c #436140",
"4&	c #5A7B57",
"5&	c #91AB92",
"6&	c #7A8F79",
"7&	c #5C6B56",
"8&	c #64735A",
"9&	c #55694A",
"0&	c #527846",
"a&	c #547F46",
"b&	c #43502F",
"c&	c #464034",
"d&	c #6D6560",
"e&	c #8B8681",
"f&	c #8B8279",
"g&	c #A29685",
"h&	c #68676A",
"i&	c #2D2D39",
"j&	c #221F21",
"k&	c #2B2B3A",
"l&	c #394D3F",
"m&	c #3B517B",
"n&	c #33634C",
"o&	c #38230D",
"p&	c #2B180B",
"q&	c #202039",
"r&	c #402710",
"s&	c #1F1308",
"t&	c #774A11",
"u&	c #4E443D",
"v&	c #96B492",
"w&	c #498846",
"x&	c #407737",
"y&	c #171D0D",
"z&	c #3A6332",
"A&	c #406C37",
"B&	c #488A47",
"C&	c #4E924D",
"D&	c #50964C",
"E&	c #57A14F",
"F&	c #466A36",
"G&	c #4E4340",
"H&	c #9E9699",
"I&	c #909393",
"J&	c #898989",
"K&	c #908C86",
"L&	c #8D8B83",
"M&	c #7B7971",
"N&	c #989590",
"O&	c #B7BABD",
"P&	c #6D7687",
"Q&	c #343B4B",
"R&	c #2B2C29",
"S&	c #395578",
"T&	c #305A56",
"U&	c #312310",
"V&	c #261A0C",
"W&	c #292851",
"X&	c #1F1A25",
"Y&	c #452D15",
"Z&	c #321D08",
"`&	c #563411",
" *	c #59634F",
".*	c #6E7B63",
"+*	c #738168",
"@*	c #6A7162",
"#*	c #424135",
"$*	c #314221",
"%*	c #3C672F",
"&*	c #437939",
"**	c #4F7F45",
"=*	c #4F6341",
"-*	c #544E5C",
";*	c #D1D1D6",
">*	c #D2D3D6",
",*	c #E7E7E8",
"'*	c #ECEBED",
")*	c #EBEBEC",
"!*	c #ECDCDE",
"~*	c #EEE4E5",
"{*	c #EFEBEC",
"]*	c #E7E4E4",
"^*	c #CED2D1",
"/*	c #868E8A",
"(*	c #46535F",
"_*	c #3A477A",
":*	c #325B5A",
"<*	c #2B2010",
"[*	c #201708",
"}*	c #232141",
"|*	c #232447",
"1*	c #4A2D0E",
"2*	c #32200A",
"3*	c #533813",
"4*	c #635A37",
"5*	c #B6AB7C",
"6*	c #C3BD90",
"7*	c #B3AE9E",
"8*	c #A6A49E",
"9*	c #95918A",
"0*	c #68645F",
"a*	c #575249",
"b*	c #4C4339",
"c*	c #3A3638",
"d*	c #C5C3CD",
"e*	c #E7ECEE",
"f*	c #E8EAEE",
"g*	c #DAE9EB",
"h*	c #E0EAEB",
"i*	c #E8C2C6",
"j*	c #DDD8D9",
"k*	c #EBE8E8",
"l*	c #EDE9EA",
"m*	c #EEEAEB",
"n*	c #EEEBEA",
"o*	c #DADCD8",
"p*	c #9BA19A",
"q*	c #3C507F",
"r*	c #355558",
"s*	c #251C0E",
"t*	c #201709",
"u*	c #22203F",
"v*	c #272756",
"w*	c #1D1614",
"x*	c #6E4413",
"y*	c #938441",
"z*	c #CCBC58",
"A*	c #7A7031",
"B*	c #8A7D36",
"C*	c #DFD058",
"D*	c #E0D169",
"E*	c #DDCF71",
"F*	c #DCD171",
"G*	c #D0C36C",
"H*	c #7C7048",
"I*	c #A498A5",
"J*	c #F0EAEA",
"K*	c #F3EEF1",
"L*	c #F1ECF2",
"M*	c #F0ECED",
"N*	c #EEDCDF",
"O*	c #EAE8E8",
"P*	c #E4E9E7",
"Q*	c #EBE7E7",
"R*	c #EBE7E8",
"S*	c #EFEAEB",
"T*	c #EFEAE9",
"U*	c #E9E8E5",
"V*	c #42707B",
"W*	c #366254",
"X*	c #1F180A",
"Y*	c #241809",
"Z*	c #251F3B",
"`*	c #29263F",
" =	c #5E5960",
".=	c #80786F",
"+=	c #726B61",
"@=	c #514731",
"#=	c #92843F",
"$=	c #958B44",
"%=	c #433815",
"&=	c #8B7C2F",
"*=	c #9E8E37",
"==	c #8C7D35",
"-=	c #524621",
";=	c #604E64",
">=	c #E6DADA",
",=	c #F3EDEC",
"'=	c #EFEAEF",
")=	c #D7D2D3",
"!=	c #D0CCCC",
"~=	c #E1DCDD",
"{=	c #ECE7E9",
"]=	c #EEEAE7",
"^=	c #3C4D7D",
"/=	c #386951",
"(=	c #1E190C",
"_=	c #281E0F",
":=	c #403E3D",
"<=	c #CFC498",
"[=	c #F0E386",
"}=	c #EEE486",
"|=	c #E9E08D",
"1=	c #DAD0A2",
"2=	c #979280",
"3=	c #716944",
"4=	c #988E4A",
"5=	c #6C6032",
"6=	c #2B1F0F",
"7=	c #211712",
"8=	c #574155",
"9=	c #D9C9D2",
"0=	c #F1ECEB",
"a=	c #D3CDCD",
"b=	c #8B857E",
"c=	c #736D65",
"d=	c #A5A098",
"e=	c #A4A39C",
"f=	c #878582",
"g=	c #8D8B87",
"h=	c #A6A3A1",
"i=	c #C6C2C1",
"j=	c #EFEAED",
". + @ # $ % & * = - ; > , ' ) ! ~ { ] ^ / ( _ : < [ } | 1 2 3 4 ",
"5 6 7 8 9 0 a b c d e f g h i j k l m n o p q r s t u v w x y z ",
"A B C D E F G H I J K L M N O P Q R S T U V W X Y Z `  ...+.@.#.",
"$.%.&.*.=.-.;.>.,.'.).!.~.{.].^./.(._.:.<.[.}.|.1.2.3.4.5.6.7.8.",
"9.0.a.b.c.d.e.f.g.h.i.j.k.l.m.n.o.p.q.r.s.t.u.v.w.x.y.z.A.B.C.D.",
"E.F.G.H.I.J.K.L.M.N.O.P.Q.R.S.T.U.V.W.X.Y.Z.`. +.+++@+#+$+%+&+*+",
"=+-+;+>+,+'+)+!+~+{+]+^+/+(+_+:+<+[+}+|+1+2+3+4+5+6+7+8+9+0+a+b+",
"c+d+e+f+g+h+i+j+k+l+m+n+o+p+q+r+s+t+u+v+w+x+y+z+A+B+C+D+E+F+G+H+",
"I+J+K+L+M+N+O+P+Q+R+S+T+U+V+W+X+Y+Z+`+ @.@+@@@#@$@%@&@*@=@-@;@>@",
",@'@)@!@~@{@]@^@/@(@_@:@<@[@}@|@1@2@3@4@5@6@7@8@9@0@a@b@c@d@e@f@",
"g@h@i@j@k@l@m@n@o@p@q@r@s@t@t@t@u@v@w@x@y@z@A@B@C@D@E@F@G@H@I@J@",
"K@L@M@N@O@P@Q@R@S@T@U@}@V@s@s@t@t@s@W@X@Y@Z@`@ #.#+#@###$#%#&#*#",
"=#-#;#>#,#'#)#!#~#{#]#^#s@V@V@u@t@V@^#/#t@(#_#:#<#[#}#|#1#2#3#4#",
"5#6#7#8#9#0#a#b#c#d#s@s@s@V@V@u@t@s@V@W@u@W@e#f#g#h#i#j#k#l#m#n#",
"o#p#q#r#s#t#u#v#U@^#V@V@V@d#}@w#u@w#W@w#u@w#w#W@x#y#z#A#B#C#D#E#",
"F#G#H#I#J#K#L#M#U@d#d#N#d#O#}@s@s@s@w#w#P#w#W@w#Q#R#S#T#U#V#W#X#",
"Y#Z#`# $.$+$@$#$N#N#N#N#V@V@V@s@t@t@w#V@u@N#W@w#Q#$$x#%$&$*$=$-$",
";$>$,$'$)$!$~${$}@N#N#d#^#d#}@u@s@]$^$}@N#W@W@w#u@/#/$($_$:$<$[$",
"}$|$1$2$3$4$5$U@#$#$U@#$6$7$U@8$}@9$0$a$w#b$c$w#d$e$f$g$h$i$j$k$",
"l$m$n$o$p$q$r$s$#$U@t$u$v$w$0$x$y$s$N#}@w#z$A$B$C$D$E$g$F$G$H$I$",
"J$K$L$M$N$O$P$Q$s$R$S$T$U$U@U@}@}@N#N#W@V$W$X$Y$Z$`$ %.%+%@%#%$%",
"%%&%*%=%-%;%>%,%'%)%!%~%{%y$U@N#d#d#N#}@]%^%/%(%_%:%<%[%}%|%1%2%",
"3%4%5%6%7%8%9%0%a$a%b%c%d%e%'%U@N#N#N#}@W@f%g%g%g%h%i%j%k%l%m%n%",
"o%p%q%r%s%t%u%v%w%x%y%z%A%B%C%s$D%#$U@#$N#{#E%F%G%H%I%J%K%L%M%N%",
"O%P%Q%R%S%T%U%V%W%X%Y%Z%`% &.&+&@&#&$&%&&&*&=&-&;&>&,&'&)&!&~&{&",
"]&^&/&(&_&:&<&[&}&|&1&2&3&4&5&6&7&8&9&0&a&b&c&d&e&f&g&h&i&j&k&l&",
"m&n&o&p&q&r&s&t&u&v&w&x&y&z&A&B&C&D&E&F&G&H&I&J&K&L&M&N&O&P&Q&R&",
"S&T&U&V&W&X&Y&Z&`& *.*+*@*#*$*%*&***=*-*;*>*,*'*)*!*~*{*]*^*/*(*",
"_*:*<*[*}*|*1*2*3*4*5*6*7*8*9*0*a*b*c*d*e*f*g*h*i*j*k*l*m*n*o*p*",
"q*r*s*t*u*v*w*x*y*z*A*B*C*D*E*F*G*H*I*J*K*L*M*N*O*P*Q*R*l*S*T*U*",
"V*W*X*Y*Z*`* =.=+=@=#=$=%=&=*===-=;=>=,=K*'=]*)=!=~={=l*m*{*l*]=",
"^=/=(=_=:=<=[=}=|=1=2=3=4=5=6=7=8=9=0=T*a=b=c=d=e=f=g=h=i=j={*m*"};
