/* XPM */
const char * reference_xpm[] = {
"16 16 3 1",
" 	c None s None",
".	c black",
"X	c #000080",
"                ",
"      .....     ",
"    ..     ..   ",
"   ..       ..  ",
"    ..     ..   ",
"      .....     ",
"       X.       ",
"       X.       ",
"       X.       ",
"       X.       ",
"       X.       ",
"       X....... ",
"       X.....   ",
"       X......  ",
"       X.....   ",
"       X....... "};
