/* XPM */
const char * savePageToDb16[] = {
"16 16 106 2",
"  	c None",
". 	c #222222",
"+ 	c #141414",
"@ 	c #000000",
"# 	c #101010",
"$ 	c #1D1D1D",
"% 	c #373737",
"& 	c #7D7D7D",
"* 	c #909090",
"= 	c #AAAAAA",
"- 	c #9B9B9B",
"; 	c #545454",
"> 	c #989898",
", 	c #B4B4B4",
"' 	c #939393",
") 	c #8C8C8C",
"! 	c #848484",
"~ 	c #727272",
"{ 	c #B7B7B7",
"] 	c #888888",
"^ 	c #808080",
"/ 	c #797979",
"( 	c #A3A3A3",
"_ 	c #6E6E6E",
": 	c #D18F84",
"< 	c #D19084",
"[ 	c #D39186",
"} 	c #999999",
"| 	c #ADADAD",
"1 	c #A8A8A8",
"2 	c #AFAFAF",
"3 	c #A6A6A6",
"4 	c #858585",
"5 	c #565656",
"6 	c #C77467",
"7 	c #C77466",
"8 	c #C87668",
"9 	c #CD867A",
"0 	c #A7A7A7",
"a 	c #777777",
"b 	c #8D8D8D",
"c 	c #8A8A8A",
"d 	c #616161",
"e 	c #656565",
"f 	c #FEFEFE",
"g 	c #F9F9F9",
"h 	c #7F7F7F",
"i 	c #9E9E9E",
"j 	c #6D6D6D",
"k 	c #696969",
"l 	c #666666",
"m 	c #535353",
"n 	c #D7D7D7",
"o 	c #D6D6D6",
"p 	c #F1F1F1",
"q 	c #737373",
"r 	c #7E7E7E",
"s 	c #959595",
"t 	c #9D9D9D",
"u 	c #6A6A6A",
"v 	c #595959",
"w 	c #FCFCFC",
"x 	c #F4F4F4",
"y 	c #EBEBEB",
"z 	c #080808",
"A 	c #525252",
"B 	c #5E5E5E",
"C 	c #4C4C4C",
"D 	c #D4D4D4",
"E 	c #C5C5C5",
"F 	c #16181A",
"G 	c #171C20",
"H 	c #5B5B5B",
"I 	c #E8E8E8",
"J 	c #F2F2F2",
"K 	c #EEEEEE",
"L 	c #CFE0ED",
"M 	c #8DA9BE",
"N 	c #AEBFCD",
"O 	c #CAD6DF",
"P 	c #C7CFDA",
"Q 	c #BFCBD6",
"R 	c #A1B6C4",
"S 	c #89A6BC",
"T 	c #7F9AAE",
"U 	c #819AAE",
"V 	c #7E99AD",
"W 	c #7D97AC",
"X 	c #8CA8BD",
"Y 	c #A8B1BD",
"Z 	c #CECECE",
"` 	c #9C9D9D",
" .	c #2F4656",
"..	c #80868C",
"+.	c #84A0B5",
"@.	c #183042",
"#.	c #33495A",
"$.	c #B9B9B9",
"%.	c #132D3C",
"&.	c #586D80",
"*.	c #86A4B9",
"=.	c #CDCDCD",
"-.	c #2E4353",
";.	c #5A7082",
">.	c #BFBFBF",
",.	c #112835",
"    . + @ # $                   ",
"  % & * = - ; $ @               ",
"@ > , ' ) ! & ~ @               ",
"@ { > * ] ^ / ~ @ @ @ @ @ @ @ @ ",
"@ , ( ) ! ) ' _ @ : : : : < : [ ",
"@ } | 1 2 3 4 5 @ 6 6 6 7 6 8 9 ",
"@ 0 a b b c d e @ f f f f f f g ",
"@ h i _ j k l m @ n n n n n o p ",
"@ q r s t ] u v @ f f w x y y p ",
"  z A A B ; C $ ^ n D E E E E p ",
"    @ @ F G H b I J y y y y y K ",
"      @ L M N O P Q Q Q Q Q Q R ",
"      @ L M M S T U U U U V W U ",
"      @ L M X Y E E Z y n `  ...",
"      @ L M +.E E @.#.o E $.%.&.",
"      @ L *.U E =.-.;.E E >.,.;."};
