/* XPM */
const char *setIcon[] = {
/* columns rows colors chars-per-pixel */
"19 16 3 1",
"   c White",    
".  c black",
"X  c red",
/* pixels */
"                   ",
" .                 ",
" . .               ",
" . . .             ",
" . . .             ",
" . . .             ",
" . . .             ",
" . . .  X          ",
" . . . X           ",
" . . .   X  X      ",
" ... .X    X   X X ",
"   . .        X X  ",
"   ...       X     ",
"     .             ",
"     ............. ",
"                   "
};
