/* XPM */
char * stock_new_formula_xpm[] = {
"16 16 52 1",
" 	c None",
".	c #000000",
"+	c #FEFEFE",
"@	c #FDFDFD",
"#	c #E0E0E0",
"$	c #C1C1C1",
"%	c #F1F1F1",
"&	c #C3C3C3",
"*	c #FBFBFB",
"=	c #A8A8A8",
"-	c #ADADAD",
";	c #767676",
">	c #5D5D5D",
",	c #404040",
"'	c #F0F0F0",
")	c #E2E2E2",
"!	c #858585",
"~	c #4B4B49",
"{	c #161616",
"]	c #EFEFEF",
"^	c #EEEEEE",
"/	c #C5C5C5",
"(	c #686868",
"_	c #131313",
":	c #ECECEC",
"<	c #C4C4C4",
"[	c #676767",
"}	c #454545",
"|	c #D2D2D2",
"1	c #EBEBEB",
"2	c #EDEDED",
"3	c #EAEAEA",
"4	c #979797",
"5	c #E8E8E8",
"6	c #6B6B6B",
"7	c #0C0C0C",
"8	c #DDDDDD",
"9	c #C0C0C0",
"0	c #737373",
"a	c #1D1D1D",
"b	c #E7E7E7",
"c	c #BFBFBF",
"d	c #E6E6E6",
"e	c #E5E5E5",
"f	c #BEBEBE",
"g	c #E4E4E4",
"h	c #BDBDBD",
"i	c #E3E3E3",
"j	c #BBBBBB",
"k	c #C2C2C2",
"l	c #BCBCBC",
"m	c #A0A0A0",
"  .........     ",
" .++++++@#$.    ",
" .+%%%%%%&*=.   ",
" .+%%%%%%-;>,.  ",
" .+%%%%%')!~{.  ",
" .+%].....^^/.  ",
" .+]](.^^_^:<.  ",
" .@^^^[}|^^1&.  ",
" .@2:3<.4333$.  ",
" .@1556785559.  ",
" .@330.55abbc.  ",
" .@5d.....def.  ",
" .@bbdddeeggh.  ",
" .@deeeggiiij.  ",
" .khhhlljjjjm.  ",
"  ...........   "};
